<?xml version="1.0" encoding="utf-8"?>
<!-- Generator: Adobe Illustrator 25.1.0, SVG Export Plug-In . SVG Version: 6.00 Build 0)  -->
<svg version="1.1" xmlns="http://www.w3.org/2000/svg" xmlns:xlink="http://www.w3.org/1999/xlink" x="0px" y="0px"
	 viewBox="0 0 600 500" style="enable-background:new 0 0 600 500;" xml:space="preserve">
<style type="text/css">
	.st0{fill:#FFC45C;}
	.st1{fill:#EBAF46;}
	.st2{opacity:0.15;fill:#19173B;}
	.st3{fill:#3B8779;}
	.st4{fill:#5F9E82;}
	.st5{opacity:0.21;fill:#19173B;}
	.st6{fill:none;stroke:#2E2854;stroke-width:1.0194;stroke-linecap:round;stroke-linejoin:round;stroke-miterlimit:10;}
	.st7{fill:#FFFFFF;}
	.st8{fill:#FF98AA;}
	.st9{fill:#532A70;}
	.st10{fill:#E35D76;}
	.st11{fill:none;stroke:#E35D76;stroke-width:0.9688;stroke-linecap:round;stroke-linejoin:round;stroke-miterlimit:10;}
	.st12{fill:none;stroke:#2E2854;stroke-width:0.9267;stroke-linecap:round;stroke-linejoin:round;stroke-miterlimit:10;}
</style>
<g id="BACKGROUND">
</g>
<g id="OBJECTS">
	<g>
		<g>
			<path class="st0" d="M298.53,205.28c-36.82,2.76-70.85-29.44-107.11-22.46c-22.63,4.35-39.95,23.54-49.25,44.63
				c-9.75,22.1-12.42,47.26-7.55,70.91c7.62,36.98,33.05,68.54,64.04,90.12c36.5,25.42,81.88,38.54,126.13,34.12
				c44.26-4.43,86.88-26.93,113.65-62.45c26.77-35.52,36.59-83.83,23.6-126.37c-5.1-16.7-14.08-33-28.71-42.53
				c-14.79-9.64-33.45-11.19-51.05-9.91C354.77,183.33,330.66,202.88,298.53,205.28z"/>
			<path class="st1" d="M438.45,360.15c26.77-35.52,36.59-83.83,23.6-126.37c-1.14-3.74-2.49-7.46-4.05-11.1
				c-37.13-3.53-43.43,19.61-47.95,46.5c-5.4,32.15-32.76,40.21-71.63,2.18c-38.87-38.03-70.19-11.29-91.91,10.31
				c-21.72,21.6-41.27,8.64-58.49-19.15c-12.03-19.42-36.1-21.31-53.93-8.41c-2.6,14.62-2.47,29.72,0.53,44.26
				c7.62,36.98,33.05,68.54,64.04,90.12c36.5,25.42,81.88,38.54,126.13,34.12C369.06,418.17,411.68,395.67,438.45,360.15z"/>
			<path class="st2" d="M235.27,247.68c0,0-0.33,0.42-0.93,1.19c-6.16,7.9-41.16,52.83-52.53,68.12
				c-12.48,16.79-14.28,48.52,9.84,58.57c24.12,10.05,36.72,7.14,36.72,7.14l-2.79,21.5c30.73,14.86,65.31,21.78,99.22,18.39
				c10.13-1.01,20.18-2.99,29.97-5.84l0.8-32.58c0,0,22.89,12.6,39.81-3.6c16.92-16.2,0-53.18,0-53.18L235.27,247.68z"/>
			<path class="st0" d="M213.01,138.66c-9.02,26.14,26.85,42.33,51.64,32.22c24.79-10.12,21.63-35.44-9.12-42.47
				C224.78,121.39,215.83,130.51,213.01,138.66z"/>
		</g>
		<g>
			<path class="st3" d="M347.55,240.52c1.62-3.16,3.26-6.36,4.03-9.83c0.78-3.47,0.62-7.28-1.2-10.33
				c-2.25-3.78-6.65-5.78-10.96-6.62c-13.72-2.67-27.57,4.11-41.54,3.71c-9.95-0.29-19.57-4.22-29.52-4.19
				c-5.25,0.02-10.68,1.24-14.77,4.52c-6.29,5.04-8.14,14.84-3.09,22.79C279.8,252.03,313.01,253.21,347.55,240.52z"/>
			<g>
				<path class="st4" d="M382.8,282.37c-4.81-10.93-8.67-22.51-16.08-31.88c-7.67-9.7-18.74-16.36-30.53-20.1
					c-11.79-3.74-24.3-4.71-36.67-4.43c-16.17,0.36-34.05-1.04-48.46,6.33c-9.07,4.64-16.23,12.34-22.12,20.66
					c-5.88,8.32-10.66,17.36-16.24,25.88c-6.48,9.91-14.03,19.11-20.14,29.25c-6.11,10.14-10.8,21.55-10.76,33.39l55.97,2.86
					c-2.84,20.64-5.14,41.42-6.9,62.36c29.38,13.15,61.94,19.11,93.92,15.91c12.09-1.21,24.06-3.78,35.61-7.58
					c0.23-21.02-0.43-42.05-2.01-63.02l45.36-1.31c1.63-11.98-1.27-24.18-5.7-35.42C393.63,304.02,387.67,293.43,382.8,282.37z"/>
				<path class="st5" d="M358.41,352l4.52-0.13c-19.37-16.54-39.35-33.56-39.35-33.56l-42.11,6.46l-43.73,19.91
					c-1.66,12.1-3.13,24.24-4.42,36.44c7.2-1.48,23.45-5.06,32.85-8.9c12.33-5.04,14.85-15.61,15.03-21.15c0,0,8.27-4.95,11.83-7.74
					c0,0,18.5,1.53,22.37,0.45c3.87-1.08,4.77-4.14,4.77-4.14l2.34,1.17c0,0,2.53,45.55,37.75,48.6
					C359.95,376.93,359.34,364.45,358.41,352z"/>
				<path class="st6" d="M231.07,404.16c1.74-20.09,3.99-40.02,6.71-59.83c2.99-21.78,6.56-43.41,10.63-64.95"/>
				<path class="st6" d="M360.45,412.26c0.15-20.1-0.54-40.21-2.04-60.26c-1.62-21.6-4.2-43.12-7.72-64.49"/>
				<path class="st7" d="M302.92,269.46c6.98-13.85,13.47-27.94,19.49-42.22c-7.55-1.14-15.25-1.45-22.89-1.28
					c-7.34,0.17-15.04-0.03-22.6,0.4C285.37,240.58,293.83,254.81,302.92,269.46z"/>
				<path class="st8" d="M317.68,226.63c-6.02-0.64-12.1-0.81-18.15-0.68c-6.15,0.14-12.53,0.05-18.88,0.25
					c4.37,5.86,11.62,9.5,18.94,9.42C306.55,235.56,313.38,232.11,317.68,226.63z"/>
				<g>
					<path class="st6" d="M270.54,292.46c-1.15,2.01-2.3,4.02-3.46,6.03"/>
					<path class="st7" d="M274.21,227.11c1.82,3.92,0.62,8.59-1.31,12.45c-1.94,3.86-4.59,7.41-5.85,11.54
						c-2.01,6.65-0.13,13.77,1.38,20.55c1.35,6.05,2.32,12.68,0.21,18.54c-0.46,1.26,0.07,2.68,1.28,3.26
						c0.01,0.01,0.03,0.01,0.04,0.02c1.16,0.56,2.59,0.22,3.29-0.86c2.15-3.31,2.76-7.55,2.42-11.53
						c-0.39-4.68-1.93-9.17-3.07-13.73c-1.14-4.55-1.89-9.37-0.7-13.92c1.11-4.24,3.82-7.87,5.62-11.86
						c2.16-4.79,2.94-10.15,2.38-15.37c-1.79,0.07-3.57,0.15-5.35,0.29L274.21,227.11z"/>
				</g>
				<g>
					<path class="st6" d="M333.64,284.45c-0.73,2.27-1.45,4.53-2.18,6.8"/>
					<path class="st7" d="M329.77,263.78c2.8,5.53,3.46,12.1,1.78,18.22c-0.39,1.42,0.29,2.9,1.62,3.53
						c0.02,0.01,0.04,0.02,0.05,0.03c1.54,0.72,3.43,0,4.03-1.59c2.59-6.85,2.06-14.86-1.56-21.24c-2.55-4.49-6.47-8.16-8.47-12.92
						c-2.63-6.3-1.47-13.39,1.01-21.49c-1.96-0.42-3.93-0.79-5.91-1.09c-2.3,8.02-3.45,16.75-0.05,24.3
						C324.25,255.9,327.6,259.51,329.77,263.78z"/>
				</g>
			</g>
			<g>
				<g>
					<path class="st4" d="M403.76,350.69c-1.63,11.98-8.41,23.72-19.29,29.01c-12.53,6.09-28.28,2.44-39-6.45
						c-10.71-8.9-16.98-22.17-20.38-35.67L340.32,317c19.81,1.91,38.23,14.66,47.02,32.52L403.76,350.69z"/>
					<path class="st5" d="M384.48,379.7c3.11-1.51,5.87-3.57,8.29-5.99c-35.02,6.24-65.39-29.18-65.78-29.64
						c3.66,11.17,9.51,21.72,18.5,29.18C356.2,382.14,371.95,385.79,384.48,379.7z"/>
					<path class="st6" d="M399.41,364.55c-3.35,6.48-8.4,11.98-14.93,15.15c-12.53,6.09-28.28,2.44-39-6.45
						c-10.71-8.9-16.98-22.17-20.38-35.67"/>
					<path class="st6" d="M325.1,337.57L340.32,317c19.81,1.91,38.23,14.66,47.02,32.52"/>
				</g>
				<path class="st8" d="M312.11,327.34c2.58,3.29,5.22,6.64,8.74,8.9c3.51,2.26,8.12,3.26,11.91,1.51
					c4.01-1.85,6.16-6.18,8.01-10.2c1.22-2.66,2.48-5.65,1.55-8.43c-0.62-1.88-2.14-3.3-3.64-4.59
					c-5.66-4.88-11.91-9.07-18.79-11.59C315.99,310.64,313.34,318.97,312.11,327.34z"/>
			</g>
			<g>
				<path class="st8" d="M288.52,308.64c-3.26,1.44-6.19,3.63-8.51,6.34l1.67,7.17l9.9-5.39L288.52,308.64z"/>
				<g>
					<path class="st9" d="M321.41,285.28c0.17,16.32-0.82,32.67-2.96,48.86c-0.31,2.34-2.23,4.13-4.58,4.34
						c-8.03,0.72-15.66,0.52-23.11-0.51c-2.35-0.33-4.17-2.24-4.34-4.6c-1.19-16.74-0.76-32.93,0.93-48.74
						c0.25-2.36,2.15-4.22,4.51-4.44c7.78-0.72,15.81-0.54,24.89,0.15C319.33,280.54,321.38,282.68,321.41,285.28z"/>
					<path class="st6" d="M321.41,285.28c0.17,16.32-0.82,32.67-2.96,48.86c-0.31,2.34-2.23,4.13-4.58,4.34
						c-8.03,0.72-15.66,0.52-23.11-0.51c-2.35-0.33-4.17-2.24-4.34-4.6c-1.19-16.74-0.76-32.93,0.93-48.74
						c0.25-2.36,2.15-4.22,4.51-4.44c7.78-0.72,15.81-0.54,24.89,0.15C319.33,280.54,321.38,282.68,321.41,285.28z"/>
				</g>
				<g>
					<path class="st8" d="M274.41,347.6c6.35-1.35,12.4-4.07,17.63-7.92c4.46-0.99,8.55-2.85,11.98-5.57
						c0.67-0.53,1.37-1.38,0.97-2.13c-0.36-0.66-1.29-0.66-2.03-0.57c-2.9,0.34-5.81,0.69-8.72,1.03c4.69-2.85,9.02-6.02,12.6-9.88
						c0.46-0.5,0.94-1.16,0.69-1.79c-0.17-0.44-0.68-0.69-1.15-0.7c-0.48-0.01-0.94,0.16-1.39,0.32c-1.56,0.58-3.12,1.17-4.69,1.75
						c1.87-1.39,3.64-2.91,5.31-4.55c0.45-0.44,0.9-0.9,1.11-1.49c0.21-0.59,0.11-1.33-0.39-1.7c-0.61-0.45-1.46-0.17-2.16,0.12
						c-1.77,0.74-3.53,1.48-5.3,2.23c1.67-1.37,3.23-2.86,4.67-4.47c0.48-0.53,0.97-1.16,0.9-1.87c-0.09-0.86-1-1.43-1.86-1.45
						c-0.86-0.02-1.67,0.38-2.44,0.77c-5.27,2.65-10.54,5.31-15.8,7.96l-4.32-2.71c-4.07,2.8-8.27,5.58-12.48,8.36L274.41,347.6z"/>
					<g>
						<path class="st6" d="M298.86,316.75c-2.84,2.33-5.98,4.29-9.33,5.82"/>
						<path class="st6" d="M300.3,322.14c-2.72,2.03-5.65,3.8-8.71,5.26"/>
						<path class="st6" d="M274.41,347.6c6.35-1.35,12.4-4.07,17.63-7.92c4.46-0.99,8.55-2.85,11.98-5.57
							c0.67-0.53,1.37-1.38,0.97-2.13c-0.36-0.66-1.29-0.66-2.03-0.57c-2.9,0.34-5.81,0.69-8.72,1.03c4.69-2.85,9.02-6.02,12.6-9.88
							c0.46-0.5,0.94-1.16,0.69-1.79c-0.17-0.44-0.68-0.69-1.15-0.7c-0.48-0.01-0.94,0.16-1.39,0.32c-1.56,0.58-3.12,1.17-4.69,1.75
							c1.87-1.39,3.64-2.91,5.31-4.55c0.45-0.44,0.9-0.9,1.11-1.49c0.21-0.59,0.11-1.33-0.39-1.7c-0.61-0.45-1.46-0.17-2.16,0.12
							c-1.77,0.74-3.53,1.48-5.3,2.23c1.67-1.37,3.23-2.86,4.67-4.47c0.48-0.53,0.97-1.16,0.9-1.87c-0.09-0.86-1-1.43-1.86-1.45
							c-0.86-0.02-1.67,0.38-2.44,0.77c-5.27,2.65-10.54,5.31-15.8,7.96"/>
					</g>
				</g>
				<g>
					<path class="st4" d="M181.81,341.47c0.04,11.84,5.55,24.14,15.87,29.95c9.01,5.08,20.06,4.63,30.31,3.19
						c10.9-1.52,21.67-3.99,32.14-7.36c6.1-1.96,12.62-4.66,15.64-10.31c3.06-5.71,1.63-12.68,0.04-18.95
						c-1.41-5.56-3.25-11.6-8.07-14.71c-3.45-2.22-7.77-2.48-11.87-2.45c-13.09,0.08-26.16,2.4-38.48,6.82L181.81,341.47z"/>
					<path class="st5" d="M227.99,374.61c10.9-1.52,21.67-3.99,32.14-7.36c6.1-1.96,12.62-4.66,15.64-10.31
						c0.6-1.13,1.03-2.3,1.31-3.51c-6.4,2.58-23.17,8.7-48.99,13.47c-19.9,3.68-33.17-1.07-40.69-5.55
						c2.58,4.13,6.01,7.66,10.28,10.07C206.69,376.5,217.74,376.05,227.99,374.61z"/>
					<path class="st6" d="M186.67,360.15c2.64,4.66,6.33,8.63,11.01,11.27c9.01,5.08,20.06,4.63,30.31,3.19
						c10.9-1.52,21.67-3.99,32.14-7.36c6.1-1.96,12.62-4.66,15.64-10.31c3.06-5.71,1.63-12.68,0.04-18.95
						c-1.41-5.56-3.25-11.6-8.07-14.71c-3.45-2.22-7.77-2.48-11.87-2.45c-13.09,0.08-26.16,2.4-38.48,6.82"/>
				</g>
			</g>
			<g>
				<g>
					<path class="st8" d="M308.32,215.13l-0.53,16.13c-6.25,1.18-12.28,1.1-17.91-0.49c-0.5-5.91-0.33-11.06-0.25-15.9
						C295.06,214.92,300.48,214.97,308.32,215.13z"/>
					<path class="st5" d="M289.54,222.27c4.49,1.03,11.75,2.03,18.54,0.13l0.24-7.28c-7.84-0.15-13.26-0.21-18.69-0.26
						C289.59,217.24,289.53,219.69,289.54,222.27z"/>
				</g>
				<g>
					<g>
						<path class="st8" d="M260.04,178.49c-7.09,3.05-16.09,0.82-20.94-5.19c-4.85-6.01-5.12-15.28-0.64-21.57
							c4.49-6.29,13.34-9.04,21.12-5.96C262.98,155.62,263.26,166.52,260.04,178.49z"/>
						<g>
							<path class="st6" d="M242.05,160.06c3.65-3.01,8.29-4.81,13.01-5.04"/>
							<path class="st6" d="M252.15,167.44c-2.15-3.3-3.28-7.26-3.22-11.22"/>
						</g>
					</g>
					<g>
						<path class="st8" d="M335.01,183.18c6.78,3.69,15.95,2.29,21.33-3.25c5.38-5.54,6.49-14.75,2.6-21.42
							c-3.89-6.67-12.46-10.22-20.49-7.87C334.17,160.14,332.89,170.96,335.01,183.18z"/>
						<g>
							<path class="st6" d="M354.61,166.47c-3.36-3.33-7.81-5.54-12.5-6.21"/>
							<path class="st6" d="M343.87,172.9c2.44-3.09,3.93-6.93,4.23-10.88"/>
						</g>
					</g>
					<g>
						<path class="st10" d="M312.34,114.13c2.2-5.06,4.43-10.2,5.15-15.67c0.72-5.47-0.26-11.41-3.85-15.6
							c-3.67-4.28-9.54-6.13-15.17-6.3c-6.28-0.19-12.97,1.7-17,6.51c-3.49,4.17-4.53,10.04-3.59,15.4
							c0.93,5.36,3.65,10.27,8.23,15.46C294.19,114.43,302.31,114.44,312.34,114.13z"/>
						<path class="st5" d="M312.34,114.13c1.11-2.56,2.23-5.14,3.16-7.77c-10.76-4.97-23.82-4.62-34.32,0.87
							c1.3,2.22,2.92,4.44,4.92,6.71C294.19,114.43,302.31,114.44,312.34,114.13z"/>
					</g>
					<g>
						<path class="st10" d="M302.17,109.52c-8.09-0.06-16.32-0.1-24.1,2.12c-7.78,2.22-15.21,7.04-18.65,14.37
							c-4.81,10.22-0.93,22.17-0.69,33.46c0.16,7.44-1.31,14.81-1.74,22.24c-0.43,7.43,0.31,15.27,4.4,21.49
							c4.19,6.37,11.37,10.19,18.63,12.54c10.25,3.32,21.49,4.21,31.82,1.16c10.33-3.06,19.62-10.35,23.84-20.26
							c5.86-13.79,1.37-29.74,3.39-43.86c3.98-10.13,2.06-22.35-4.83-30.77C327.33,113.57,315.74,109.62,302.17,109.52z"/>
						<path class="st6" d="M291.39,181.72c3.62,0.12,7.27-0.39,10.72-1.5"/>
						<path class="st11" d="M270.03,104.72c4.87,0.47,9.51,2.91,12.66,6.65"/>
						<path class="st11" d="M313.7,113.26c2.67-7.19,9.51-12.66,17.11-13.67"/>
						<path class="st11" d="M316.82,113.74c3.09-3.25,7.51-5.2,11.99-5.29"/>
					</g>
					<g>
						<path class="st8" d="M334.45,155.67c-0.54,8.28-2.74,16.46-6.45,23.88c-5.65,1.31-10.38-0.43-14.58-2.57
							c-4.2-2.15-8.26-4.77-12.85-5.83c-11.39-2.63-23.54,4.8-34.72,1.39c-1.37-2.93-1.6-5.58-1.21-7.91
							c0.39-2.33,1.3-4.56,1.53-6.92c0.23-2.35-0.38-5.01-2.16-7.01c8.92,1.77,18.72-2.23,23.4-10.07c7.62,3.68,17.17,3,25.79-1.02
							c1.84,4.47,5.22,8.3,9.42,10.69C326.81,152.7,331.82,153.64,334.45,155.67z"/>
						<path class="st11" d="M305.11,150.76c-5.47-0.14-10.66-3.94-11.17-9.37c1.92,2.79,4.78,4.9,8.01,5.92
							c3.23,1.01,6.79,0.92,9.95-0.27"/>
						<g>
							<path class="st6" d="M274.55,159.9c1.71,1.72,4.08,2.77,6.49,2.88c2.42,0.11,4.87-0.71,6.73-2.27"/>
							<path class="st6" d="M309.76,162.05c4,3.03,9.73,3.59,14.25,1.4"/>
							<path class="st6" d="M298.45,159.85c-2.13,2.64-4.26,5.28-6.39,7.92c1.95,0.14,3.9,0.27,5.86,0.41"/>
						</g>
					</g>
				</g>
			</g>
		</g>
		<g>
			<circle class="st12" cx="375.59" cy="402.39" r="2.32"/>
			<circle class="st12" cx="395.28" cy="263.11" r="2.32"/>
			<circle class="st12" cx="156.82" cy="296.07" r="2.32"/>
			<g>
				<line class="st12" x1="399.41" y1="207.24" x2="399.41" y2="215.51"/>
				<line class="st12" x1="395.28" y1="211.37" x2="403.54" y2="211.37"/>
			</g>
			<g>
				<line class="st12" x1="431.88" y1="311.26" x2="431.88" y2="319.52"/>
				<line class="st12" x1="427.75" y1="315.39" x2="436.01" y2="315.39"/>
			</g>
			<g>
				<line class="st12" x1="186.67" y1="223.95" x2="186.67" y2="232.22"/>
				<line class="st12" x1="182.54" y1="228.08" x2="190.8" y2="228.08"/>
			</g>
		</g>
	</g>
</g>
</svg>
