<?xml version="1.0" encoding="utf-8"?>
<!-- Generator: Adobe Illustrator 25.1.0, SVG Export Plug-In . SVG Version: 6.00 Build 0)  -->
<svg version="1.1" xmlns="http://www.w3.org/2000/svg" xmlns:xlink="http://www.w3.org/1999/xlink" x="0px" y="0px"
	 viewBox="0 0 600 500" style="enable-background:new 0 0 600 500;" xml:space="preserve">
<style type="text/css">
	.st0{fill:#FFBFF3;}
	.st1{fill:#E899D9;}
	.st2{opacity:0.15;fill:#19173B;}
	.st3{fill:#E8614E;}
	.st4{fill:#F14F44;}
	.st5{fill:#2E2854;}
	.st6{fill:none;stroke:#2E2854;stroke-width:0.9892;stroke-linecap:round;stroke-linejoin:round;stroke-miterlimit:10;}
	.st7{fill:#D85648;}
	.st8{fill:#A166FF;}
	.st9{opacity:0.21;fill:#19173B;}
	.st10{fill:#532A70;}
	.st11{fill:#FFC45C;}
	.st12{fill:#CA3471;}
	.st13{fill:#DB4B85;}
	.st14{fill:none;stroke:#2E2854;stroke-width:0.9267;stroke-linecap:round;stroke-linejoin:round;stroke-miterlimit:10;}
</style>
<g id="BACKGROUND">
</g>
<g id="OBJECTS">
	<g>
		<g>
			<path class="st0" d="M318.15,76.92c-47.58-3.47-95.14,17.77-131.57,48.57c-30.42,25.72-53.38,61.18-60.26,100.43
				c-6.88,39.24,3.46,82.01,30.6,111.18c20.65,22.2,49.18,35.37,77.88,45.14c48.5,16.51,102.87,24.53,150.28,5.12
				c43.61-17.86,76.54-58.64,86.92-104.6c10.39-45.96-1.28-95.98-29.19-133.95C414.9,110.83,372.05,80.85,318.15,76.92z"/>
			<path class="st1" d="M360.8,215.53c-37.67,10.83-34.18-4.87-68.14-25.73c-33.96-20.85-61.25,4.66-81.19,30.17
				c-17.94,22.94-50.66,17.81-77.13-22.63c-3.59,9.23-6.31,18.79-8.03,28.58c-6.88,39.24,3.46,82.01,30.6,111.18
				c20.65,22.2,49.18,35.37,77.88,45.14c48.5,16.51,102.87,24.53,150.28,5.12c43.61-17.86,76.54-58.64,86.92-104.6
				c4.36-19.29,4.82-39.3,1.84-58.83C436.22,186.55,394.74,205.77,360.8,215.53z"/>
			<path class="st2" d="M431.07,263.21l-70.97,47.42l6.12,27.3c0,0,29.39,23.31,59.08,9.76
				C454.98,334.14,431.07,263.21,431.07,263.21z"/>
			<path class="st2" d="M340.4,198.85l9.62-14.5c8.52-1.64,10.08-10.18,10.08-10.18l-130.08-13.97
				c-7.92,17.4,10.58,24.89,10.58,24.89c2.81,26.15,23.94,15.56,23.94,15.56c7.47,14.07,21.07,15.82,21.07,15.82v17.63l-50.71,13.15
				c-44.79,27.18-40.23,99.26-38.03,119.19c12.14,6.28,25.01,11.38,37.92,15.77c5.53,1.88,11.14,3.65,16.8,5.28l38.29-81.07
				l18.74-87.43C333.73,217.83,340.4,198.85,340.4,198.85z"/>
		</g>
		<g>
			<g>
				<g>
					<path class="st3" d="M290.34,208.53c-0.4,8.92-0.8,17.84-0.67,28.26c7.22,1.07,14.58,1.19,22.15,1.56
						c-0.77-9.71-1.05-19.46-0.84-29.2L290.34,208.53z"/>
					<path class="st4" d="M290.34,208.53c-0.16,3.59-0.32,7.2-0.45,10.89c5,1.8,13.41,4.08,21.11,2.66
						c-0.1-4.31-0.12-8.62-0.03-12.94L290.34,208.53z"/>
				</g>
				<path class="st5" d="M267.16,196.16c-4.01,2.11-8.76,2.97-13.17,1.92c-4.41-1.05-8.4-4.13-10.1-8.34
					c-1.71-4.2-0.87-9.43,2.18-12.59c-4.88-7.6-7.15-16.85-5.52-26.18c-2.4-3.1-4.38-6.6-5.22-10.43
					c-0.84-3.83-0.44-8.03,1.64-11.35c2.15-3.44,5.89-5.73,7.76-9.34c1.66-3.21,1.62-7.07,3.08-10.39c2.22-5.05,7.76-8.1,13.26-8.51
					c5.5-0.4,10.95,1.47,16.25,4.26c-0.24-2.02,0.11-4.11,1-5.94c0.26-0.54,0.64-1.12,1.23-1.24c0.97-0.2,1.68,0.89,2,1.83
					c0.69,2.04,1,4.21,2.94,6.13c1.58-7.44,7.72-13.71,15.13-15.44c7.41-1.73,15.69,1.17,20.36,7.88c3.03-0.79,6.13-1.6,9.25-1.35
					c3.12,0.25,6.33,1.73,7.8,4.5c1.32,2.49,1.13,5.7,2.94,7.86c2.1,2.5,5.86,2.49,8.92,3.62c3.17,1.17,5.78,3.79,6.94,6.97
					c1.16,3.18,0.85,6.86-0.64,10.2c4.95,2.11,8.52,7.15,8.86,12.53c0.34,5.37-2.57,10.82-7.38,14.63
					c-1.27,7.66-3.07,15.23-5.64,22.55c3.36,4.83,3.05,11.91-0.72,16.43c-3.77,4.52-10.68,6.09-16.04,3.64L267.16,196.16z"/>
				<g>
					<path class="st3" d="M259.52,158.58c0.1-1.13,0.24-2.26,0.41-3.38c0.83-5.41-2.98-10.5-8.42-11.09
						c-3.84-0.42-7.78,0.14-11.28,1.78c-6.72,3.14-11.5,10.23-11.59,17.65c-0.09,7.42,4.68,14.75,11.62,17.4
						c6.93,2.66,15.55,0.26,19.89-5.76L259.52,158.58z"/>
					<g>
						<path class="st6" d="M238.03,162.43c3.44-4.3,8.9-6.91,14.41-6.89"/>
						<path class="st6" d="M244.49,157.36c0.53,4.58,2.69,8.95,5.98,12.18"/>
					</g>
				</g>
				<path class="st3" d="M344.61,153.15c1.32-3.83,5.92-5.95,9.88-5.1c3.96,0.85,7.09,4.19,8.4,8.03s1,8.07-0.11,11.96
					c-1.18,4.12-3.34,8.12-6.82,10.62c-3.48,2.5-8.43,3.21-12.1,0.99L344.61,153.15z"/>
				<g>
					<path class="st3" d="M344.61,153.15c0.95,11.09,1.41,22.42-1.41,33.18c-2.83,10.76-9.4,21.01-19.4,25.91
						c-7,3.43-15.07,4-22.85,3.51c-7.96-0.5-16.02-2.12-22.88-6.19c-8.66-5.13-14.82-13.93-17.85-23.54
						c-3.02-9.6-3.09-19.96-1.34-30.99c4.34,0.08,8.39-2.52,11.11-5.91c2.72-3.39,4.35-7.5,6.78-11.53
						c3.01,5.56,9.27,9.18,15.59,9.02c6.32-0.16,12.38-4.11,14.98-9.53c1.53,3.93,5.08,7,9.19,7.96c4.1,0.96,8.65-0.22,12.5-2.51
						c0.19,4.01,1.43,7.97,3.57,11.36c1.11,1.76,2.7,3.5,4.77,3.61c1.23,0.07,2.43-0.47,3.39-1.24
						C341.75,155.49,342.51,154.5,344.61,153.15z"/>
					<g>
						<path class="st7" d="M275.02,184.61c-3.84-1.97-9.1-0.45-11.29,3.27c-0.76,1.29-1.08,2.78-1.07,4.27
							c1.3,2.72,2.87,5.32,4.69,7.71c3.53,1.66,8.22,0.65,10.59-2.5C281.7,192.38,278.86,186.59,275.02,184.61z"/>
						<path class="st7" d="M340.4,194.18c-0.36-2.96-2.3-5.55-4.62-6.75c-3.84-1.97-9.1-0.45-11.29,3.27
							c-2.19,3.72-0.96,9.06,2.63,11.46c2.35,1.57,5.46,1.69,8.06,0.65C337.24,200.18,338.99,197.26,340.4,194.18z"/>
					</g>
					<g>
						<path class="st6" d="M273.88,163.81c1.97-2.25,4.93-3.6,7.92-3.6c2.99,0,5.96,1.34,7.93,3.58"/>
						<path class="st6" d="M310.54,162.95c1.38,2.26,2.76,4.52,3.99,7.22c-1.7,0.35-3.4,0.71-5.1,1.06"/>
						<path class="st6" d="M322.98,163.83c2-1.98,4.94-2.96,7.73-2.58c2.79,0.39,5.36,2.13,6.74,4.57"/>
						<path class="st6" d="M292.66,179.13c8.14,4.14,18.34,3.96,26.32-0.49"/>
					</g>
				</g>
			</g>
			<g>
				<g>
					<path class="st8" d="M360.8,325.11c10.74,10.53,25.22,17.1,40.17,18.54l6.35-43.3c-12.78-18.32-25.83-36.92-43.41-50.7
						c-0.55-0.43-1.1-0.85-1.66-1.27L360.8,325.11z"/>
					<path class="st9" d="M375.28,323.74c-2.39-24.16-9.64-51.79-9.64-51.79l-3.88,2.2l-0.96,50.96
						c10.74,10.53,25.22,17.1,40.17,18.54l1.47-10.01C387.82,330.87,375.28,323.74,375.28,323.74z"/>
					<g>
						<g>
							<path class="st3" d="M412.05,200.43c0.73,6.6,2.33,13.11,4.74,19.3l-27.66,6.91l3.78-27.79L412.05,200.43z"/>
							<path class="st3" d="M394.42,174.98c0.91-3.8,1.82-7.59,2.73-11.39c0.19-0.79,0.39-1.59,0.85-2.26
								c0.46-0.66,1.25-1.17,2.05-1.04c1.35,0.2,1.87,1.86,1.98,3.22c0.39,4.88-0.8,9.74-1.99,14.5L394.42,174.98z"/>
							<g>
								<g>
									<path class="st10" d="M414.75,200.45c-4.73,5.01-9.97,9.54-15.59,13.52c-1.23,0.87-2.92,0.71-3.98-0.35
										c-12.08-12.04-22.38-25.8-30.71-40.44c-0.71-1.25-0.48-2.84,0.58-3.81c4.88-4.49,10.32-8.45,16.73-11.73
										c1.22-0.62,2.72-0.35,3.67,0.65c10.73,11.4,20.51,23.78,29.66,38.34C415.86,197.85,415.72,199.43,414.75,200.45z"/>
									<path class="st6" d="M414.75,200.45c-4.73,5.01-9.97,9.54-15.59,13.52c-1.23,0.87-2.92,0.71-3.98-0.35
										c-12.08-12.04-22.38-25.8-30.71-40.44c-0.71-1.25-0.48-2.84,0.58-3.81c4.88-4.49,10.32-8.45,16.73-11.73
										c1.22-0.62,2.72-0.35,3.67,0.65c10.73,11.4,20.51,23.78,29.66,38.34C415.86,197.85,415.72,199.43,414.75,200.45z"/>
								</g>
								<path class="st11" d="M409.68,198.71c-3.27,3.22-6.76,6.22-10.43,8.98c-1.03,0.77-2.48,0.66-3.39-0.25
									c-10.06-10.08-18.7-21.14-26-33.03c-0.62-1-0.49-2.32,0.34-3.16c3.58-3.62,7.35-6.37,11.75-8.34
									c0.98-0.44,2.13-0.18,2.87,0.59c8.67,8.99,16.61,18.89,25.18,31.94C410.69,196.47,410.56,197.85,409.68,198.71z"/>
							</g>
							<g>
								<path class="st3" d="M389.14,226.64l-9.68-31.8c-0.49-1.62-0.71-3.88,0.85-4.53c0.92-0.38,1.97,0.08,2.8,0.63
									c3.36,2.22,5.62,6.04,6,11.1c6.02-0.49,13.23,4.1,15.76,9.58"/>
								<path class="st6" d="M389.14,226.64l-9.68-31.8c-0.49-1.62-0.71-3.88,0.85-4.53c0.92-0.38,1.97,0.08,2.8,0.63
									c3.36,2.22,5.62,6.04,6,11.1c6.02-0.49,13.23,4.1,15.76,9.58"/>
							</g>
							<g>
								<path class="st3" d="M403.73,183.51c-1.52,2.18-2.61,4.66-3.19,7.25c-0.25,1.14-0.34,2.52,0.55,3.27
									c0.7,0.6,1.8,0.54,2.6,0.09c0.81-0.45,1.4-1.2,1.93-1.96c2.54-3.54,4.6-7.55,5.08-11.88c0.11-1,0.07-2.16-0.7-2.81
									c-0.83-0.7-2.17-0.41-2.96,0.34C406.26,178.56,406.27,179.87,403.73,183.51z"/>
								<path class="st6" d="M403.73,183.51c-1.52,2.18-2.61,4.66-3.19,7.25c-0.25,1.14-0.34,2.52,0.55,3.27
									c0.7,0.6,1.8,0.54,2.6,0.09c0.81-0.45,1.4-1.2,1.93-1.96c2.54-3.54,4.6-7.55,5.08-11.88c0.11-1,0.07-2.16-0.7-2.81
									c-0.83-0.7-2.17-0.41-2.96,0.34C406.26,178.56,406.27,179.87,403.73,183.51z"/>
							</g>
							<g>
								<path class="st3" d="M404.06,182.91c0.74-1.16,1.49-2.34,1.89-3.66c0.39-1.32,0.38-2.83-0.34-4
									c-0.72-1.17-2.27-1.88-3.55-1.37c-0.76,0.31-1.32,0.97-1.82,1.62c-2.64,3.47-4.53,7.5-5.52,11.74
									c-0.31,1.34-0.37,3.08,0.84,3.74c1,0.54,2.22-0.03,3.13-0.71C401.09,188.48,402.33,185.62,404.06,182.91z"/>
								<path class="st6" d="M404.06,182.91c0.74-1.16,1.49-2.34,1.89-3.66c0.39-1.32,0.38-2.83-0.34-4
									c-0.72-1.17-2.27-1.88-3.55-1.37c-0.76,0.31-1.32,0.97-1.82,1.62c-2.64,3.47-4.53,7.5-5.52,11.74
									c-0.31,1.34-0.37,3.08,0.84,3.74c1,0.54,2.22-0.03,3.13-0.71C401.09,188.48,402.33,185.62,404.06,182.91z"/>
							</g>
							<g>
								<path class="st3" d="M410.72,189.77c-1.1,1.76-1.96,3.68-2.54,5.68c-0.18,0.64-0.34,1.31-0.22,1.96
									c0.12,0.65,0.57,1.29,1.23,1.41c0.58,0.11,1.15-0.18,1.64-0.5c2.56-1.7,4.33-4.54,4.71-7.59c0.14-1.08-0.04-2.41-1.04-2.84
									c-0.59-0.26-1.29-0.09-1.82,0.27C412.15,188.51,411.4,188.7,410.72,189.77z"/>
								<path class="st6" d="M410.72,189.77c-1.1,1.76-1.96,3.68-2.54,5.68c-0.18,0.64-0.34,1.31-0.22,1.96
									c0.12,0.65,0.57,1.29,1.23,1.41c0.58,0.11,1.15-0.18,1.64-0.5c2.56-1.7,4.33-4.54,4.71-7.59c0.14-1.08-0.04-2.41-1.04-2.84
									c-0.59-0.26-1.29-0.09-1.82,0.27C412.15,188.51,411.4,188.7,410.72,189.77z"/>
							</g>
						</g>
						<g>
							<path class="st8" d="M400.97,343.65c3.78,0.36,7.59,0.4,11.38,0.09c6.58-0.54,13.37-2.22,18.34-6.56
								c6.34-5.53,8.65-14.36,9.59-22.73c3.8-33.62-8.91-66.67-23.21-96.56c-10.26,1.15-20.37,3.69-29.37,8.25
								c4.81,25.71,7.55,51.81,8.19,77.96L400.97,343.65z"/>
							<path class="st9" d="M430.69,337.18c4.2-3.66,6.62-8.77,8.06-14.23c-9.64,13.07-25.62,13.21-39.14,10.1l1.36,10.6
								c3.78,0.36,7.59,0.4,11.38,0.09C418.93,343.2,425.71,341.52,430.69,337.18z"/>
							<path class="st6" d="M387.69,226.14c4.81,25.71,7.55,51.81,8.19,77.96"/>
						</g>
					</g>
				</g>
				<g>
					<path class="st12" d="M301.44,232.45c-10.13-0.88-22.35-1.66-34.42-0.15c-8.95,1.12-17.89,3.58-25.74,7.94l-3.23,143.08
						c41.56,13.74,87.17,21.02,128.89,10.08c4.89-48.68,3.24-97.37-4.7-145.02C344.88,235.37,322.52,227.57,301.44,232.45z"/>
					<path class="st13" d="M239.77,306.96l-0.47,20.84c43.29,3.8,87.02,3.63,130.27-0.53c-0.18-8.85-0.58-17.69-1.19-26.51
						C326.13,308.25,282.68,310.34,239.77,306.96z"/>
					<path class="st13" d="M368.25,378.32c0.57-7.83,0.97-15.66,1.2-23.49c-43.5,3.3-87.39,2.5-130.71-2.37l-0.57,25.15
						C281.14,383.9,325.2,384.14,368.25,378.32z"/>
					<path class="st13" d="M240.76,262.97l-0.45,19.93c42.03,2.59,84.42,0.55,125.9-6.04c-0.73-6.43-1.57-12.84-2.52-19.24
						C323.06,263.09,281.8,264.88,240.76,262.97z"/>
					<path class="st13" d="M305.46,253.6c12.98,0,25.61-7.38,32.32-18.43c-11.75-4.13-24.25-5.52-36.34-2.72
						c-8.91-0.77-19.44-1.46-30.05-0.6C277.42,244.71,291.23,253.6,305.46,253.6z"/>
					<path class="st3" d="M303.51,244.79c9.78,0.38,19.6-4.34,25.48-12.15c-9.09-2.03-18.44-2.3-27.55-0.19
						c-6.61-0.57-14.11-1.09-21.87-0.97C284.9,239.28,294.04,244.41,303.51,244.79z"/>
				</g>
				<g>
					<g>
						<path class="st3" d="M307.42,402.33c5.71,1.36,11.41,2.72,17.12,4.07c1.81,0.43,3.64,0.87,5.51,0.88
							c1.86,0.01,3.79-0.44,5.34-0.88c2.98,1.88,5.12,5.03,5.79,8.48c0.18,0.93,0.26,1.9,0.68,2.75c0.42,0.85,1.32,1.55,2.25,1.4
							c0.73-0.12,1.3-0.75,1.56-1.45c0.13-0.37,0.19-0.76,0.21-1.16l0.01,0c0.54,1.72,1.08,3.44,1.63,5.16
							c0.21,0.68,0.49,1.43,1.13,1.74c0.72,0.35,1.63-0.06,2.1-0.71c0.47-0.65,0.59-1.48,0.67-2.28c0.11-1.11,0.15-2.23,0.11-3.34
							l-0.05,0c0.16,0.41,0.29,0.84,0.42,1.26c0.32,1.03,0.68,2.09,1.45,2.85c0.76,0.76,2.06,1.09,2.93,0.46
							c0.95-0.68,0.97-2.06,0.85-3.22c-0.24-2.29-0.67-4.56-1.29-6.77c0.91,1.25,1.81,2.51,2.72,3.76c0.72,1,1.97,2.12,3,1.44
							c0.8-0.53,0.7-1.71,0.48-2.65c-2.49-10.45-9.18-19.85-18.47-25.93c-10.88-7.18-22.97-12.54-35.6-15.8L307.42,402.33z"/>
						<g>
							<path class="st6" d="M345.87,416.42c0.02-0.35,0-0.7-0.02-1.05c-0.24-4.03-1.32-8-3.17-11.59"/>
							<path class="st6" d="M344.14,398.8c4.55,4.91,7.2,11.52,7.38,18.2"/>
							<path class="st6" d="M355.84,411.57c-1.58-5.64-4.38-10.94-8.17-15.41"/>
							<path class="st6" d="M324.53,406.41c1.81,0.43,3.64,0.87,5.51,0.88c1.86,0.01,3.79-0.44,5.34-0.88
								c2.98,1.88,5.12,5.03,5.79,8.48c0.18,0.93,0.26,1.9,0.68,2.75c0.42,0.85,1.32,1.55,2.25,1.4c0.73-0.12,1.3-0.75,1.56-1.45
								c0.13-0.37,0.19-0.76,0.21-1.16l0.01,0c0.54,1.72,1.08,3.44,1.63,5.16c0.21,0.68,0.49,1.43,1.13,1.74
								c0.72,0.35,1.63-0.06,2.1-0.71c0.47-0.65,0.59-1.48,0.67-2.28c0.11-1.11,0.15-2.23,0.11-3.34l-0.05,0
								c0.16,0.41,0.29,0.84,0.42,1.26c0.32,1.03,0.68,2.09,1.45,2.85c0.76,0.76,2.06,1.09,2.93,0.46c0.95-0.68,0.97-2.06,0.85-3.22
								c-0.24-2.29-0.67-4.56-1.29-6.77c0.91,1.25,1.81,2.51,2.72,3.76c0.72,1,1.97,2.12,3,1.44c0.8-0.53,0.7-1.71,0.48-2.65
								c-1.8-7.55-5.79-14.55-11.37-20.15"/>
						</g>
					</g>
					<g>
						<path class="st8" d="M251.08,354.15c5.64-38.04,2.26-77.4-9.8-113.92c-2.73,1.52-5.33,3.26-7.75,5.26
							c-15.11,12.47-21.22,32.68-24.75,51.95c-3.25,17.74-5,35.77-4.92,53.81c0.03,7.64,0.4,15.35,2.41,22.72
							c2.01,7.37,5.79,14.44,11.69,19.29c6.33,5.21,14.53,7.47,22.54,9.22c16.13,3.5,32.61,5.42,49.11,5.71
							c6.55,0.11,13.88-0.35,18.8-5.59c1.31-10.45,2.62-20.91,2.88-30.97C292.26,362.8,271.88,356.9,251.08,354.15z"/>
						<path class="st9" d="M217.96,393.27c6.33,5.21,14.53,7.47,22.54,9.22c16.13,3.5,32.61,5.42,49.11,5.71
							c5.56,0.1,11.68-0.23,16.41-3.54c-5.52-0.15-27.12-1.09-55.88-6.73c-18.61-3.65-33.44-13.2-42.95-20.96
							C209.36,383.23,212.86,389.07,217.96,393.27z"/>
						<g>
							<path class="st6" d="M230.74,352.48c6.8,0.22,13.59,0.78,20.33,1.67"/>
							<path class="st6" d="M311.29,371.63c-19.03-8.83-39.41-14.73-60.21-17.48c3.84-25.93,3.5-52.47-0.93-78.31"/>
						</g>
					</g>
				</g>
			</g>
		</g>
		<g>
			<circle class="st14" cx="462.56" cy="242.29" r="2.57"/>
			<circle class="st14" cx="389.14" cy="121.4" r="2.57"/>
			<circle class="st14" cx="232.8" cy="222.52" r="2.57"/>
			<circle class="st14" cx="155.94" cy="264.9" r="2.57"/>
			<g>
				<line class="st14" x1="387.69" y1="358.83" x2="387.69" y2="367.98"/>
				<line class="st14" x1="383.12" y1="363.4" x2="392.27" y2="363.4"/>
			</g>
			<g>
				<line class="st14" x1="203.73" y1="155.63" x2="203.73" y2="164.78"/>
				<line class="st14" x1="199.15" y1="160.21" x2="208.3" y2="160.21"/>
			</g>
		</g>
	</g>
</g>
</svg>
