<?xml version="1.0" encoding="utf-8"?>
<!-- Generator: Adobe Illustrator 25.1.0, SVG Export Plug-In . SVG Version: 6.00 Build 0)  -->
<svg version="1.1" xmlns="http://www.w3.org/2000/svg" xmlns:xlink="http://www.w3.org/1999/xlink" x="0px" y="0px"
	 viewBox="0 0 600 500" style="enable-background:new 0 0 600 500;" xml:space="preserve">
<style type="text/css">
	.st0{fill:#FFBFF3;}
	.st1{fill:#E899D9;}
	.st2{opacity:0.15;fill:#19173B;}
	.st3{fill:#2E2854;}
	.st4{fill:#E8614E;}
	.st5{fill:#F14F44;}
	.st6{fill:none;stroke:#FFC45C;stroke-width:1.9375;stroke-linecap:round;stroke-linejoin:round;stroke-miterlimit:10;}
	.st7{fill:none;stroke:#2E2854;stroke-width:1.0258;stroke-linecap:round;stroke-linejoin:round;stroke-miterlimit:10;}
	.st8{fill:#D85648;}
	.st9{fill:#A166FF;}
	.st10{fill:#874DE3;}
	.st11{fill:#FFC45C;}
	.st12{opacity:0.21;fill:#19173B;}
	.st13{fill:#532A70;}
	.st14{fill:none;stroke:#2E2854;stroke-width:0.9267;stroke-linecap:round;stroke-linejoin:round;stroke-miterlimit:10;}
</style>
<g id="BACKGROUND">
</g>
<g id="OBJECTS">
	<g>
		<g>
			<path class="st0" d="M305.92,143.57c-23.33-0.33-46.84-0.64-69.78,3.71c-22.94,4.35-45.54,13.73-62.16,30.39
				c-16.54,16.58-26.14,39.6-28.59,63.08c-2.45,23.48,1.94,47.38,10.49,69.34c10.73,27.56,28.51,52.89,53.08,68.85
				c20.66,13.41,45.06,19.66,69.34,23.08c27.44,3.87,56.13,4.27,82.07-5.62c26.74-10.2,48.87-30.92,64.01-55.54
				c15.13-24.62,23.64-52.99,28.05-81.67c3.2-20.84,4.31-42.27,0.14-62.93c-4.16-20.66-13.95-40.6-29.78-54.22
				s-38.09-20.19-58.06-14.49c-9.08,2.59-17.34,7.49-26.21,10.74C329.66,141.53,319.47,143,305.92,143.57z"/>
			<path class="st1" d="M455.28,224.44c-18.13,20.52-46.16,13.4-75.35-6.12c-36.6-24.47-73.12,10.8-86.6,38.37
				c-13.47,27.57-45.92,25.39-75.48,6.39c-27.89-17.93-49.45-28.06-72.85-0.56c1.05,16.26,4.97,32.38,10.88,47.56
				c10.73,27.56,28.51,52.89,53.08,68.85c20.66,13.41,45.06,19.66,69.34,23.08c27.44,3.87,56.13,4.27,82.07-5.62
				c26.74-10.2,48.87-30.92,64.01-55.54c15.13-24.62,23.64-52.99,28.05-81.67C454.2,247.7,455.32,236.05,455.28,224.44z"/>
			<path class="st2" d="M200.26,311.41l5.61,1.47c0,0-10.52,38.8,32.41,51.14l-3.73,27.55c10.6,3.92,21.68,6.67,32.86,8.68
				l10.22-125.48l-39.34-29.6C238.29,245.19,206.44,273.11,200.26,311.41z"/>
			<path class="st2" d="M349.7,181.07c8-9.25,4.66-20.77,4.66-20.77l-49.37-11.87c0,0,0.58,194.78,1.05,256.04
				c15.33,0.44,30.63-0.86,45.24-5.05l1.1-158.71C376.24,214.18,349.7,181.07,349.7,181.07z"/>
			<path class="st2" d="M245.65,246.45l29.42-69.15l-41.69-24.86c-23.2,12.91-1.31,28.63-1.31,28.63
				C205.31,231.03,245.65,246.45,245.65,246.45z"/>
			<path class="st0" d="M200.26,112.92c-1.64,24.28,43.82,35.52,55.37,9.9C267.18,97.2,202.38,81.48,200.26,112.92z"/>
		</g>
		<g>
			<g>
				<path class="st3" d="M301.62,243.61c-14.43,3.62-29.72,3.78-44.23,0.47c-7.46-1.7-14.99-4.48-20.32-9.98
					c-7.47-7.71-9.26-19.58-7.23-30.12c2.03-10.54,7.34-20.12,12.71-30.15c-0.41-6.73-0.22-13.49,2.43-20.85
					c-3.86-11.18-2.95-23.99,2.76-34.35c5.7-10.36,16.18-18.05,27.84-20.05c11.66-2,24.24,1.85,32.49,10.16
					c6.43-1.99,13.67-1.21,19.52,2.11c5.86,3.32,10.25,9.12,11.19,16.48c4.09,1.92,6.54,6.34,7.29,10.8
					c0.74,4.46,0.04,9.01-0.94,14.92c-0.09,5.23-0.19,10.46-0.74,17.02c0.07,6.46,3.95,12.14,6.93,17.87
					c3.7,7.12,6.16,14.98,6.27,23s-2.26,16.19-7.36,22.38c-5.09,6.19-13.03,10.18-21.04,9.74L301.62,243.61z"/>
				<g>
					<path class="st4" d="M288.31,208.71c-0.05,9.29-0.1,18.58-0.35,29.15c6.84-0.34,13.71-0.3,21.16,0.54
						c-0.32-9.43-0.64-18.86-0.96-28.28L288.31,208.71z"/>
					<path class="st5" d="M308.41,217.37c-0.08-2.42-0.16-4.84-0.25-7.25l-19.85-1.41c-0.01,2.62-0.03,5.24-0.05,7.88
						C292.77,217.81,300.94,219.36,308.41,217.37z"/>
				</g>
				<g>
					<path class="st6" d="M242.26,203.21c-2.58-0.1-5.15-1.03-7.18-2.64c-3.37-2.69-5.19-7.11-4.95-11.42
						c0.24-4.3,2.46-8.4,5.76-11.17"/>
					<g>
						<path class="st4" d="M253.9,154.62c-3.58-5.68-11.34-8.2-17.67-5.96c-6.32,2.25-10.71,8.91-10.54,15.62
							c0.18,6.71,4.76,13.03,10.99,15.53c6.23,2.5,13.76,1.18,18.94-3.08L253.9,154.62z"/>
						<g>
							<path class="st7" d="M235,163.46c3.15-3.18,8.1-4.46,12.39-3.2"/>
							<path class="st7" d="M244.97,169.9c-2.4-2.65-3.86-6.14-4.15-9.71"/>
						</g>
					</g>
					<path class="st6" d="M246.72,177.3c4.23,2.82,7.35,7.49,7.67,12.56c0.32,5.07-2.48,10.37-7.13,12.43
						c-1.57,0.69-3.29,0.99-5,0.92"/>
				</g>
				<g>
					<path class="st4" d="M335.53,146.92c3.65-3.7,10-3.99,14.34-1.14c4.34,2.85,6.59,8.32,6.19,13.5
						c-0.41,5.18-3.22,9.99-7.1,13.44c-3.87,3.46-8.73,5.66-13.74,7.05L335.53,146.92z"/>
					<path class="st6" d="M343.18,195.4c-2.11,0.81-4.51,1.01-6.61,0.2c-2.1-0.82-3.82-2.76-4.01-5.01"/>
					<path class="st6" d="M344.1,172.25c5.05,1.86,7.51,8.63,6.96,13.07c-0.55,4.45-3.7,8.47-7.88,10.07"/>
				</g>
				<g>
					<path class="st4" d="M336.43,146.12c1.22,10.92,2.43,22.01,0.62,32.85c-1.81,10.84-7.08,21.59-16.3,27.57
						c-8.04,5.21-18.12,6.26-27.68,5.57c-9.51-0.68-19.28-3.13-26.54-9.32c-6.59-5.62-10.52-13.89-12.24-22.38
						c-1.72-8.49-1.41-17.26-0.38-25.8c1.3,2.25,3.83,3.72,6.43,3.74c2.59,0.02,5.15-1.42,6.48-3.65c1.33-2.23,1.37-5.16-0.1-7.89
						c5.85,3.4,13.57,2.57,19.24-1.12c5.67-3.69,9.41-9.85,11.36-16.06c3.11,5.31,6.62,10.62,11.73,14.04
						c5.12,3.42,12.23,4.53,17.29,1.4c0.72,1.53,2.12,2.74,3.74,3.24C331.68,148.82,333.51,148.6,336.43,146.12z"/>
					<path class="st8" d="M332.64,185.85c-4.2-2.17-9.93-0.61-12.46,3.38c-2.53,3.99-1.48,9.84,2.27,12.7
						c0.76,0.58,1.61,0.98,2.51,1.29c4.53-4.24,7.8-9.77,9.9-15.74C334.17,186.81,333.41,186.25,332.64,185.85z"/>
					<path class="st8" d="M271.16,206.07c2.63-0.02,5.27-1.01,7.05-2.96c5.42-5.93,1.52-12.77-2.67-14.93
						c-4.2-2.17-9.93-0.61-12.46,3.38c-1.15,1.82-1.55,4.02-1.3,6.15c1.4,1.86,2.97,3.58,4.75,5.09
						C267.98,204.03,269.53,205.11,271.16,206.07z"/>
					<g>
						<g>
							<path class="st7" d="M267.09,171.01c1.21-2.18,2.41-4.35,3.74-6.26c2.68,2.01,6,3.15,9.35,3.22
								c3.35,0.06,6.71-0.95,9.47-2.86"/>
							<path class="st7" d="M275.07,167c-0.42,1.73-0.85,3.48-1.27,5.2"/>
							<path class="st7" d="M280.23,171.86c-0.08-1.29-0.13-2.6-0.19-3.9"/>
						</g>
						<g>
							<path class="st7" d="M335.85,167.22c-1.44-2.03-2.88-4.06-4.41-5.81c-2.44,2.3-5.62,3.8-8.94,4.23
								c-3.32,0.44-6.78-0.2-9.73-1.79"/>
							<path class="st7" d="M327.48,164.13c0.61,1.68,1.23,3.37,1.84,5.03"/>
							<path class="st7" d="M322.88,169.52c-0.07-1.29-0.15-2.59-0.24-3.9"/>
						</g>
						<path class="st7" d="M302.1,162.75c1.4,2.62,3.35,4.95,5.77,6.94c-1.12,0.93-2.36,1.7-3.69,2.29"/>
						<path class="st7" d="M287.87,183.32c6.29,1.63,12.96,1.77,19.32,0.42"/>
					</g>
				</g>
			</g>
			<g>
				<g>
					<path class="st4" d="M332.55,312.89l34.28,80.77c3.82-1.74,7.53-3.7,11.13-5.86c13.88-26.03,17.08-55.73,15.91-79.66
						L332.55,312.89z"/>
					<g>
						<path class="st9" d="M363.05,315.76c11.78-0.58,23.45-3.09,34.42-7.42c0.06-24.87-12.13-47.88-31.08-62.42
							c-4.02-3.09-8.33-5.78-12.85-8.07L363.05,315.76z"/>
						<path class="st10" d="M363.05,315.76c11.78-0.58,23.45-3.09,34.42-7.42c0-1.88-0.08-3.74-0.22-5.59
							c-11.26,3.92-22.99,6.48-34.86,7.61L363.05,315.76z"/>
						<path class="st11" d="M386.97,291.83c-1.12-1.51-3.85-1.29-4.72,0.38c-0.87,1.67,0.51,4.03,2.39,4.09
							C386.52,296.35,388.46,293.83,386.97,291.83z"/>
					</g>
				</g>
				<path class="st4" d="M210.17,310.57c-5.46,13.68-0.04,30.86,12.29,38.93c1.96,1.28,4.04,2.34,6.2,3.18l21.23-40.2L210.17,310.57
					z"/>
				<path class="st12" d="M228.65,352.68l2.48-4.7c-7.76-1.43-13.73-4.68-17.24-7.05c2.27,3.37,5.14,6.33,8.56,8.57
					C224.42,350.78,226.49,351.84,228.65,352.68z"/>
				<g>
					<path class="st9" d="M258.72,233.63c-9.54,3.04-18.32,7.86-25.61,14.7c-8.33,7.82-14.32,17.88-18.68,28.45
						c-4.36,10.57-7.17,21.7-9.12,33.56c9.86,4.28,20.74,6.16,31.46,5.44l21.94-2.61c0,0,8.6-24.92,7.79-42.13
						C265.71,253.84,258.72,233.63,258.72,233.63z"/>
					<path class="st10" d="M206.28,304.98c-0.34,1.77-0.66,3.56-0.96,5.37c9.86,4.28,20.74,6.16,31.46,5.44l21.94-2.61
						c0,0,0.59-1.7,1.43-4.5C242.7,311.51,218.14,309.11,206.28,304.98z"/>
					<path class="st11" d="M226.58,299.06c-1.12-1.51-3.85-1.29-4.72,0.38c-0.87,1.67,0.51,4.03,2.39,4.09
						C226.13,303.58,228.08,301.07,226.58,299.06z"/>
					<path class="st11" d="M249.35,258.62c-1.12-1.51-3.85-1.29-4.72,0.38c-0.87,1.67,0.51,4.03,2.39,4.09
						C248.91,263.14,250.85,260.62,249.35,258.62z"/>
				</g>
				<g>
					<path class="st9" d="M364.67,293.33l-11.12-55.47c-6.96-3.52-14.42-6.05-22.08-7.55c0,0-24.97,27.64-25.74,28.3
						c-0.77,0.66-39.21-27-39.21-27c-2.64,0.56-5.25,1.21-7.79,2.02l-0.92,52.82c-5.82,35.38-11.63,70.77-16.91,107.31
						c12.14,3.91,24.78,6.46,37.4,8.25c27.44,3.87,56.13,4.27,82.07-5.62c3.92-1.49,7.73-3.24,11.44-5.17
						C371.59,358.48,369.22,325.76,364.67,293.33z"/>
					<path class="st12" d="M363.32,318.43l-3.78-0.57c0,0,6.09-3.73,7.34-7.02c-0.11-0.94-0.2-1.89-0.32-2.83
						c-1.25-1.59-4.18-1.51-4.18-1.51l-11.6-1.53c0,0-53.34,25.3-100.61,28.32c-1.53,9.53-3.04,19.1-4.52,28.72
						c5.96,0.16,15.41-0.49,24.11-5c14.1-7.3,54.51-23.85,73.87-27.08C363,326.71,367.58,319.35,363.32,318.43z"/>
					<g>
						<path class="st10" d="M266.51,231.61c9.24,21.55,23.03,41.16,41.48,56.91c10.43-18.21,18.34-37.86,23.47-58.21
							c-10.8-2.12-22-2.18-32.78,0.03C287.92,229.05,276.92,229.4,266.51,231.61z"/>
						<path class="st4" d="M307.09,279.78c8.28-15.97,14.68-32.9,19.07-50.34c-9.13-1.2-18.45-0.94-27.48,0.91
							c-8.71-1.05-17.58-1.03-26.17,0.19C279.21,249.58,292.23,267.18,307.09,279.78z"/>
					</g>
					<g>
						<path class="st11" d="M282.61,290.21c-1.12-1.51-3.85-1.29-4.72,0.38c-0.87,1.67,0.51,4.03,2.39,4.09
							C282.17,294.73,284.11,292.21,282.61,290.21z"/>
						<path class="st11" d="M315.33,347.42c-1.12-1.51-3.85-1.29-4.72,0.38c-0.87,1.67,0.51,4.03,2.39,4.08
							C314.88,351.95,316.82,349.43,315.33,347.42z"/>
						<path class="st11" d="M274.74,381.24c-1.12-1.51-3.85-1.29-4.72,0.38c-0.87,1.67,0.51,4.03,2.39,4.09
							C274.3,385.77,276.24,383.25,274.74,381.24z"/>
						<path class="st11" d="M353.01,373.7c-1.12-1.51-3.85-1.29-4.72,0.38c-0.87,1.67,0.51,4.03,2.39,4.09
							C352.57,378.23,354.51,375.71,353.01,373.7z"/>
						<path class="st11" d="M339.68,273.06c-1.12-1.51-3.85-1.29-4.72,0.38c-0.87,1.67,0.51,4.03,2.39,4.09
							C339.23,277.58,341.17,275.06,339.68,273.06z"/>
					</g>
				</g>
				<g>
					<path class="st4" d="M340.21,297.23c-7.43,2.21-14.27,6.41-19.6,12.04l1.77,3.62l15.08-2.25L340.21,297.23z"/>
					<g>
						<path class="st13" d="M332.12,309.72c7.19-12.22,14.73-24.23,23-35.81c1.29-1.81,3.71-2.47,5.72-1.52
							c5.48,2.58,10.51,6.1,14.59,10.7c1.36,1.53,1.54,3.8,0.46,5.54c-6.75,10.92-13.9,21.59-21.42,32L332.12,309.72z"/>
						<path class="st7" d="M332.12,309.72c7.19-12.22,14.73-24.23,23-35.81c1.29-1.81,3.71-2.47,5.72-1.52
							c5.48,2.58,10.51,6.1,14.59,10.7c1.36,1.53,1.54,3.8,0.46,5.54c-6.75,10.92-13.9,21.59-21.42,32L332.12,309.72z"/>
					</g>
					<g>
						<path class="st4" d="M332.25,309.22c7.55-3.91,15.1-7.82,22.65-11.73c0.81-0.42,1.65-0.85,2.57-0.89
							c0.91-0.04,1.91,0.43,2.19,1.3c0.32,1-0.39,2.01-1.08,2.81c-1.42,1.63-2.94,3.16-4.56,4.6l-0.01-0.01
							c1.95-1.21,3.89-2.41,5.84-3.62c0.64-0.4,1.3-0.8,2.05-0.9c0.75-0.1,1.6,0.18,1.93,0.86c0.41,0.84-0.13,1.82-0.68,2.58
							c-1.1,1.53-2.31,2.98-3.61,4.35c1.18-0.7,2.35-1.41,3.53-2.11c0.76-0.45,1.69-0.92,2.48-0.51c0.67,0.35,0.92,1.23,0.75,1.96
							c-0.17,0.74-0.65,1.35-1.14,1.93c-2.31,2.72-5.04,5.09-8.05,7.02c1.79-0.16,3.59-0.17,5.38-0.02c0.45,0.04,0.93,0.1,1.24,0.43
							c0.39,0.42,0.31,1.12-0.02,1.59c-0.34,0.46-0.86,0.74-1.38,1c-5.41,2.73-11.18,4.75-17.12,5.98
							c-20.36,4.71-39.99,10.75-59.07,18.22c-10.34,4.05-20.62,8.54-31.56,10.48c-8.62,1.53-17.85,1.3-25.93-1.85l4.57-35.21
							c11.04-6.76,24.03-9.89,36.96-10.52c12.93-0.63,25.86,1.14,39.89,4.27c3.12-0.72,6.24-1.44,10.53-1.95L332.25,309.22z"/>
						<path class="st12" d="M362.32,319.85c0.51-0.26,1.04-0.54,1.38-1c0.34-0.46,0.42-1.17,0.02-1.59
							c-0.08-0.08-0.17-0.15-0.27-0.2c-4.74,2.97-13.62,7-28.76,8.97c-25.68,3.34-65.61,17.81-87.57,21.92
							c-6.67,1.25-12.67,0.84-17.81-0.33l-0.66,5.07c8.07,3.15,17.3,3.38,25.93,1.85c10.93-1.94,21.22-6.43,31.56-10.48
							c19.08-7.47,38.71-13.51,59.07-18.22C351.14,324.6,356.91,322.58,362.32,319.85z"/>
						<g>
							<path class="st7" d="M350.95,320.01c2.15-0.85,4.21-1.91,6.16-3.16"/>
							<path class="st7" d="M359.55,308.56c-2.54,2.73-7.27,5.68-10.86,7.83"/>
							<path class="st7" d="M354.03,305.31c-2.61,2.33-5.46,4.41-8.48,6.18"/>
							<path class="st7" d="M332.25,309.22c7.55-3.91,15.1-7.82,22.65-11.73c0.81-0.42,1.65-0.85,2.57-0.89
								c0.91-0.04,1.91,0.43,2.19,1.3c0.32,1-0.39,2.01-1.08,2.81c-1.42,1.63-2.94,3.16-4.56,4.6l-0.01-0.01
								c1.95-1.21,3.89-2.41,5.84-3.62c0.64-0.4,1.3-0.8,2.05-0.9c0.75-0.1,1.6,0.18,1.93,0.86c0.41,0.84-0.13,1.82-0.68,2.58
								c-1.1,1.53-2.31,2.98-3.61,4.35c1.18-0.7,2.35-1.41,3.53-2.11c0.76-0.45,1.69-0.92,2.48-0.51c0.67,0.35,0.92,1.23,0.75,1.96
								c-0.17,0.74-0.65,1.35-1.14,1.93c-2.31,2.72-5.04,5.09-8.05,7.02c1.79-0.16,3.59-0.17,5.38-0.02
								c0.45,0.04,0.93,0.1,1.24,0.43c0.39,0.42,0.31,1.12-0.02,1.59c-0.34,0.46-0.86,0.74-1.38,1c-5.41,2.73-11.18,4.75-17.12,5.98
								c-20.36,4.71-39.99,10.75-59.07,18.22c-10.34,4.05-20.62,8.54-31.56,10.48c-8.62,1.53-17.85,1.3-25.93-1.85"/>
							<path class="st7" d="M233.23,317.47c11.04-6.76,24.03-9.89,36.96-10.52c12.93-0.63,25.86,1.14,39.89,4.27"/>
						</g>
					</g>
				</g>
			</g>
		</g>
		<g>
			<circle class="st14" cx="404.71" cy="263.09" r="2.42"/>
			<circle class="st14" cx="186.62" cy="315.38" r="2.42"/>
			<circle class="st14" cx="386.16" cy="152.44" r="2.42"/>
			<g>
				<line class="st14" x1="190.91" y1="208.01" x2="190.91" y2="216.6"/>
				<line class="st14" x1="186.62" y1="212.31" x2="195.21" y2="212.31"/>
			</g>
			<g>
				<line class="st14" x1="418.12" y1="312.1" x2="418.12" y2="320.69"/>
				<line class="st14" x1="413.83" y1="316.4" x2="422.42" y2="316.4"/>
			</g>
		</g>
	</g>
</g>
</svg>
