<?xml version="1.0" encoding="utf-8"?>
<!-- Generator: Adobe Illustrator 25.1.0, SVG Export Plug-In . SVG Version: 6.00 Build 0)  -->
<svg version="1.1" xmlns="http://www.w3.org/2000/svg" xmlns:xlink="http://www.w3.org/1999/xlink" x="0px" y="0px"
	 viewBox="0 0 600 500" style="enable-background:new 0 0 600 500;" xml:space="preserve">
<style type="text/css">
	.st0{fill:#FFC45C;}
	.st1{fill:#EBAF46;}
	.st2{opacity:0.15;fill:#19173B;}
	.st3{fill:#FF8584;}
	.st4{fill:#E35D76;}
	.st5{opacity:0.21;fill:#19173B;}
	.st6{fill:#FFFFFF;}
	.st7{clip-path:url(#SVGID_2_);}
	.st8{fill:none;stroke:#A166FF;stroke-width:1.4532;stroke-linecap:round;stroke-linejoin:round;stroke-miterlimit:10;}
	.st9{fill:#9E4950;}
	.st10{fill:none;stroke:#2E2854;stroke-width:0.9884;stroke-linecap:round;stroke-linejoin:round;stroke-miterlimit:10;}
	.st11{fill:#532A70;}
	.st12{fill:#5F9E82;}
	.st13{fill:#2E2854;}
	.st14{fill:#AB575E;}
	.st15{fill:#A166FF;}
	.st16{fill:#FFFFFF;stroke:#2E2854;stroke-width:0.9884;stroke-linecap:round;stroke-linejoin:round;stroke-miterlimit:10;}
	.st17{fill:none;stroke:#2E2854;stroke-width:0.9267;stroke-linecap:round;stroke-linejoin:round;stroke-miterlimit:10;}
</style>
<g id="BACKGROUND">
</g>
<g id="OBJECTS">
	<g>
		<g>
			<path class="st0" d="M278.81,422.31c-31.81-3.69-62.46-15.5-91.13-29.7c-28.67-14.21-54.84-34.94-70.51-62.45
				c-15.67-27.51-19.6-62.32-5.68-90.46c11.53-23.31,33.65-39.84,56.71-52.46c23.06-12.62,47.86-22.27,69.81-36.66
				c30.28-19.85,54.66-48.41,87.77-63.34c29.5-13.3,64.68-14.31,95.05-2.46c30.37,11.84,55.48,36.44,67.33,66.32
				c11.67,29.43,10.52,62.3,4.06,93.08c-9.87,47.01-32.34,92.01-67.68,125.02C389.22,402.23,340.15,429.42,278.81,422.31z"/>
			<path class="st1" d="M377.14,246.46c-46.8,0.51-40.91-33.52-84.06-37.92c-43.15-4.4-54.46,50.72-56.89,69.74
				c-2.43,19.03-32.02,24.87-58.1,6.45c-21.96-15.51-57.65-15.91-73.14,12.77c2.28,11.41,6.45,22.53,12.22,32.66
				c15.67,27.51,41.84,48.24,70.51,62.45c28.67,14.21,59.31,26.02,91.13,29.7c61.34,7.11,110.4-20.09,145.74-53.1
				c35.34-33.01,57.81-78,67.68-125.02c5.67-27.01,7.24-55.63-0.34-82.12C411.2,139.75,419.02,246.01,377.14,246.46z"/>
			<path class="st2" d="M310.6,243.95l1.02-17.6c0,0,26.44,1.46,37.17-23.41c0,0,13.02,7.36,24.28-4.7c0,0,1.17,5.21,7.14,4.91
				c5.96-0.31,6.57-15.6,6.57-15.6l-141.73-11.46c0,0.61-2.03,21.4,18.55,18.81c0,0,2.55,21.13,24.56,27.64l-0.82,21.42H310.6z"/>
			<path class="st2" d="M278.81,422.31c0.37,0.04,0.74,0.07,1.11,0.11l-40.99-152.5l-33.52,46.36l-14.62-39.75
				c0,0,12.83,0,23.45-1.75c2.61-0.43,4.49-2.72,4.38-5.36l-1.29-32.29l-49.64,20.73c0,0-24.59,44.59,1.98,106.95
				c0,0-1.05,12.37,5.72,21.17c4.03,2.34,8.13,4.55,12.29,6.62c1.46,0.73,2.94,1.44,4.41,2.15c15.3,2.32,32.36-4.56,44.71-15.79
				l-4.8,32.41C247.24,416.58,262.88,420.47,278.81,422.31z"/>
			<path class="st0" d="M142.73,150.31c11.23,29.53,96.62-0.36,84.8-31.75C215.71,87.16,129.68,116.01,142.73,150.31z"/>
		</g>
		<g>
			<g>
				<path class="st3" d="M247.82,355.54c-5.83,9.58-12.47,18.92-21.4,25.71c-8.93,6.79-20.5,10.79-31.5,8.59
					c-11-2.2-20.8-11.58-21.41-22.78l27.73-52.28c10.3-19.92,20.93-40.27,37.37-55.52c4.35-4.03,9.2-7.65,14.42-10.63L247.82,355.54
					z"/>
				<path class="st4" d="M209.25,299.61c-2.75,5.02-5.39,10.11-8,15.17l-6.01,11.34l16.55,26.27c6.15,9.23,10.23,19.82,11.92,30.77
					c0.93-0.61,1.84-1.25,2.73-1.92c4.75-3.61,8.83-7.95,12.51-12.65C234.41,343.76,224.19,319.97,209.25,299.61z"/>
			</g>
			<g>
				<path class="st3" d="M380.31,315.32l-18-63.33c-3.29-1.98-6.7-3.75-10.23-5.27l-47.61,14.84l-41.48-17.6
					c-3.43,1.29-6.76,2.86-9.95,4.68l-2.13,36.1c-3.06,43.08-6.13,86.17-10.09,129.47c12.44,3.77,25.12,6.61,38,8.11
					c42.58,4.94,79.25-6.67,109.51-25.27C385.65,369.8,382.98,342.56,380.31,315.32z"/>
				<path class="st5" d="M384.78,360.94l-88.05-3.65l-38.94,3.85c0,0-2.29,3.35,3.16,3.91l-1.57,3.18c0,0-0.31,2.93,2.54,2.83
					c2.85-0.1,7.98-2.8,7.98-2.8l-5.01,6.21c0,0,0.39,3.37,3.24,2.76c2.85-0.61,11.52-4.64,16.51-4.54l-5.35,5.13
					c0,0,0.25,2.97,3.56,3.08c3.31,0.1,7.85-3.06,7.85-3.06s5.55,6.93,19.85,4.03c0,0,24.87,25.74,56.72,26.38
					c7.32-3.33,14.33-7.1,21.03-11.21C387.15,385.01,385.97,372.98,384.78,360.94z"/>
				<g>
					<path class="st6" d="M336.49,275.11c7.98-7.51,13.03-17.7,15.59-28.4c-1.17-0.5-2.35-0.98-3.55-1.43
						c-14.81-5.56-31.49-6.58-46.54-1.69c-13.33-5.15-26.81-4.23-39,0.36c4.29,8.85,8.67,17.75,14.86,25.39
						c6.36,7.86,14.89,14.38,24.79,16.4C314.68,288.2,327.54,283.54,336.49,275.11z"/>
					<g>
						<defs>
							<path id="SVGID_1_" d="M336.49,275.11c7.98-7.51,13.03-17.7,15.59-28.4c-1.17-0.5-2.35-0.98-3.55-1.43
								c-14.81-5.56-31.49-6.58-46.54-1.69c-13.33-5.15-26.81-4.23-39,0.36c4.29,8.85,8.67,17.75,14.86,25.39
								c6.36,7.86,14.89,14.38,24.79,16.4C314.68,288.2,327.54,283.54,336.49,275.11z"/>
						</defs>
						<clipPath id="SVGID_2_">
							<use xlink:href="#SVGID_1_"  style="overflow:visible;"/>
						</clipPath>
						<g class="st7">
							<path class="st8" d="M267.51,258.38c27.76-3.37,55.85-4.13,83.76-2.25"/>
							<path class="st8" d="M274.39,268.45c24.29-2.35,48.73-3.11,73.12-2.28"/>
							<path class="st8" d="M285.93,279.14c17.9-1.24,35.85-1.68,53.79-1.32"/>
						</g>
					</g>
					<path class="st9" d="M301.99,243.6c-6.42-2.48-12.89-3.54-19.22-3.47c3.76,4.72,8.57,8.67,14.18,10.86
						c5.96,2.33,12.85,2.55,18.71-0.02c4.58-2.01,8.38-5.82,10.27-10.41C317.84,240.14,309.7,241.09,301.99,243.6z"/>
				</g>
				<path class="st10" d="M250.9,284.74c-2.98,41.98-5.96,83.96-9.77,126.14"/>
			</g>
			<g>
				<g>
					<path class="st9" d="M412.33,367.03c1.6,6.98-0.98,14.53-5.79,19.85c-4.81,5.31-11.6,8.55-18.6,10.07
						c-7,1.52-14.25,1.44-21.4,0.95c-20.09-1.38-40.76-6.37-56.17-19.33c-6.12,1.96-14.01,0.68-18.98-4
						c-3.99,1.65-7.38,3.64-11.06,3.46c-0.9-0.04-1.96-0.36-2.23-1.22c-0.28-0.9,0.47-1.76,1.16-2.39c2.77-2.51,5.76-4.78,8.92-6.77
						c-5.68,1.14-14.49,4.71-20.21,6.74c-0.65,0.23-1.32,0.46-2,0.44c-0.69-0.02-1.41-0.36-1.69-0.99
						c-0.39-0.89,0.23-1.89,0.85-2.63c2.18-2.59,4.86-4.75,7.84-6.35c-3.71,1.19-7.43,2.35-11.15,3.49
						c-0.81,0.25-1.78,0.47-2.44-0.07c-0.53-0.44-0.62-1.24-0.4-1.89c0.22-0.65,0.71-1.17,1.19-1.65c1.35-1.34,2.85-2.53,4.46-3.54
						c-1.29,0.34-2.58,0.68-3.87,1.02c-1.18,0.31-2.69,0.5-3.38-0.5c-0.86-1.26,0.53-2.83,1.81-3.66c9.98-6.4,22.28-7.9,34.12-8.46
						c21.93-1.04,43.98,0.6,65.51,4.87L412.33,367.03z"/>
					<path class="st5" d="M387.94,396.94c5.76-1.25,11.36-3.68,15.84-7.45c-35.64,11.97-92.77-15.05-92.77-15.05
						c-11.42,1.78-18.86-3.92-18.86-3.92c-3.37,3.16-9.82,5.69-13.51,6.96c0.46,0.34,1.1,0.5,1.69,0.53
						c3.68,0.18,7.08-1.81,11.06-3.46c4.97,4.68,12.86,5.96,18.98,4c15.41,12.96,36.08,17.95,56.17,19.33
						C373.69,398.38,380.94,398.46,387.94,396.94z"/>
					<g>
						<path class="st10" d="M264.64,361.15c3.19-2.01,6.81-3.35,10.55-3.85"/>
						<path class="st10" d="M278.8,362.53c-2.02,0.53-3.98,1.31-5.82,2.3"/>
						<path class="st10" d="M310.38,378.55c-6.12,1.96-14.01,0.68-18.98-4c-3.99,1.65-7.38,3.64-11.06,3.46
							c-0.9-0.04-1.96-0.36-2.23-1.22c-0.28-0.9,0.47-1.76,1.16-2.39c2.77-2.51,5.76-4.78,8.92-6.77
							c-5.68,1.14-14.49,4.71-20.21,6.74c-0.65,0.23-1.32,0.46-2,0.44c-0.69-0.02-1.41-0.36-1.69-0.99
							c-0.39-0.89,0.23-1.89,0.85-2.63c2.18-2.59,4.86-4.75,7.84-6.35c-3.71,1.19-7.43,2.35-11.15,3.49
							c-0.81,0.25-1.78,0.47-2.44-0.07c-0.53-0.44-0.62-1.24-0.4-1.89c0.22-0.65,0.71-1.17,1.19-1.65c1.35-1.34,2.85-2.53,4.46-3.54
							c-1.29,0.34-2.58,0.68-3.87,1.02c-1.18,0.31-2.69,0.5-3.38-0.5c-0.86-1.26,0.53-2.83,1.81-3.66c9.98-6.4,22.28-7.9,34.12-8.46
							c21.93-1.04,43.98,0.6,65.51,4.87"/>
					</g>
				</g>
				<g>
					<path class="st3" d="M362.31,251.98c9.15,5.52,17.32,12.7,24.23,20.86c21.3,25.14,30.5,58.88,30.84,93.02
						c-8.34,8.21-21.61,9.71-32.85,6.48c-11.25-3.23-20.88-10.46-28.47-18.36c0.46-18.5-0.97-37.06-4.25-55.27L362.31,251.98z"/>
					<path class="st4" d="M416.88,353.88c-0.49-6.71-1.33-13.36-2.56-19.9c-18.91,6.31-40.03,5.72-58.58-1.57
						c0.29,5.31,0.42,10.64,0.39,15.96C374.38,358.68,397.08,360.75,416.88,353.88z"/>
					<path class="st10" d="M417.39,365.86c-8.34,8.21-21.61,9.71-32.85,6.48c-11.25-3.23-20.88-10.46-28.47-18.36
						c0.46-18.5-0.97-37.06-4.25-55.27"/>
				</g>
			</g>
			<g>
				<path class="st9" d="M294.34,215.16c-0.24,8.64-0.47,17.28-1.26,27.09c6.71,4.85,16.33,5.28,23.27,0.09
					c-0.28-8.51-0.56-17.02-0.83-25.54L294.34,215.16z"/>
				<path class="st5" d="M294.07,224.03c4.98,1.31,13.23,2.87,21.75,2.14c-0.1-3.12-0.2-6.24-0.31-9.37l-21.18-1.65
					C294.26,218.1,294.18,221.04,294.07,224.03z"/>
			</g>
			<g>
				<path class="st9" d="M169.68,246.39c-6.62,16.64-8.25,34.95-7.71,52.87c0.54,17.91,3.62,35.66,7.44,53.17
					c1.41,6.49,2.98,13.09,6.49,18.73c3.51,5.64,9.35,10.24,15.98,10.57c5.7,0.28,11.26-2.67,15.01-6.98
					c3.75-4.3,5.88-9.82,7.03-15.41c3.2-15.52-0.61-31.64-6.02-46.52c-5.42-14.89-12.47-29.25-16.12-44.66L169.68,246.39z"/>
				<g>
					<g>
						<path class="st11" d="M217.83,210.38c1.08,17.41,1.27,34.87,0.55,52.3c-0.11,2.79-2.13,5.16-4.86,5.72
							c-8.47,1.73-16.79,1.97-24.83,0.8c-2.76-0.4-4.9-2.68-5.15-5.47c-1.6-17.87-1.95-35.43-1.13-52.66
							c0.14-2.93,2.38-5.35,5.29-5.73c7.82-1.03,15.85-1.26,24.46-0.65C215.19,204.9,217.64,207.34,217.83,210.38z"/>
						<path class="st10" d="M217.83,210.38c1.08,17.41,1.27,34.87,0.55,52.3c-0.11,2.79-2.13,5.16-4.86,5.72
							c-8.47,1.73-16.79,1.97-24.83,0.8c-2.76-0.4-4.9-2.68-5.15-5.47c-1.6-17.87-1.95-35.43-1.13-52.66
							c0.14-2.93,2.38-5.35,5.29-5.73c7.82-1.03,15.85-1.26,24.46-0.65C215.19,204.9,217.64,207.34,217.83,210.38z"/>
					</g>
					<path class="st10" d="M200.13,269.92c-1.31,9.1,2.44,18.52,8.61,25.38c6.38,7.1,15.07,11.75,24.05,14.97
						c9.04,3.24,18.71,5.19,28.26,4.14c13.18-1.46,25.48-8.79,33.57-19.3c8.09-10.51,10.28-23.99,9.81-37.24"/>
				</g>
				<g>
					<path class="st9" d="M183.19,259.7c4.69-6.86,8.84-5.98,12.3-9.03c0.73-0.64,1.39-1.66,0.97-2.54c-0.4-0.82-1.48-1-2.39-1
						c-3.38-0.02-6.75,0.86-9.61,2c2.01-2.4,4.77-4.06,7.65-5.3c2.87-1.24,5.89-2.11,8.82-3.21c0.76-0.29,1.55-0.61,2.12-1.2
						c0.57-0.59,0.86-1.53,0.47-2.25c-0.47-0.88-1.63-1.06-2.63-1.08c-0.86-0.02-1.71,0-2.56,0.06c0.38-0.16,0.75-0.32,1.12-0.49
						c0.95-0.44,1.92-0.93,2.58-1.75c0.66-0.82,0.93-2.03,0.37-2.92c-0.38-0.61-1.08-0.97-1.79-1.08c-0.71-0.12-1.44-0.03-2.15,0.08
						c-5.54,0.85-10.91,2.79-15.71,5.68l9.57-14.79c0.25-0.38,0.5-0.78,0.48-1.23c-0.03-0.73-0.82-1.25-1.55-1.25
						c-0.73,0-1.41,0.38-2.03,0.78c-4.8,3.03-8.69,7.34-11.8,12.09c-3.11,4.74-5.63,9.87-7.73,15.14l2.71,11.8L183.19,259.7z"/>
					<g>
						<path class="st10" d="M198.32,236.15c-5.42,0.38-10.72,2.34-15.06,5.6"/>
						<path class="st10" d="M183.19,259.7c4.69-6.86,8.84-5.98,12.3-9.03c0.73-0.64,1.39-1.66,0.97-2.54c-0.4-0.82-1.48-1-2.39-1
							c-3.38-0.02-6.75,0.86-9.61,2c2.01-2.4,4.77-4.06,7.65-5.3c2.87-1.24,5.89-2.11,8.82-3.21c0.76-0.29,1.55-0.61,2.12-1.2
							c0.57-0.59,0.86-1.53,0.47-2.25c-0.47-0.88-1.63-1.06-2.63-1.08c-0.86-0.02-1.71,0-2.56,0.06c0.38-0.16,0.75-0.32,1.12-0.49
							c0.95-0.44,1.92-0.93,2.58-1.75c0.66-0.82,0.93-2.03,0.37-2.92c-0.38-0.61-1.08-0.97-1.79-1.08
							c-0.71-0.12-1.44-0.03-2.15,0.08c-5.54,0.85-10.91,2.79-15.71,5.68l9.57-14.79c0.25-0.38,0.5-0.78,0.48-1.23
							c-0.03-0.73-0.82-1.25-1.55-1.25c-0.73,0-1.41,0.38-2.03,0.78c-4.8,3.03-8.69,7.34-11.8,12.09
							c-3.11,4.74-5.63,9.87-7.73,15.14"/>
					</g>
				</g>
			</g>
			<g>
				<g>
					<path class="st12" d="M348.79,113.06c7.46-6.26,18.73-6.87,27.52-2.68c8.79,4.19,15.14,12.58,18.27,21.8
						c3.13,9.22,3.3,19.23,2.07,28.89c-1.63,12.76-5.67,25.21-11.32,36.02c-1.45,2.77-5.24,3.2-7.22,0.78
						c-5.98-7.33-11.59-15.32-12.67-24.47c-0.87-7.36,3.07-16.43,0.05-23.19c-3.59-8.04-11.65-13.54-14.76-21.78L348.79,113.06z"/>
					<path class="st2" d="M352,110.85c-1.13,0.64-2.2,1.37-3.2,2.21l1.93,15.37c3.11,8.24,11.17,13.74,14.76,21.78
						c3.02,6.77-0.92,15.83-0.05,23.19c0.59,5.04,2.56,9.72,5.21,14.14C388.67,137.19,364.82,114.29,352,110.85z"/>
				</g>
				<g>
					<path class="st12" d="M361.39,175.82c6.41-10.96,9.58-24.1,7.22-36.57c-2.36-12.47-10.72-24.03-22.51-28.74
						c-5.54-5.7-12.62-8.93-19.91-9.38c-7.29-0.45-14.71,1.87-20.44,6.4c-0.76-1.82-1.04-4.02-1.5-6.19
						c-0.17-0.79-0.52-1.73-1.31-1.84c-0.92-0.14-1.52,0.93-1.78,1.82c-0.69,2.37-0.97,4.86-0.81,7.32
						c-0.64-3.01-1.39-5.13-2.45-7.1c-0.41-0.77-1.11-1.64-1.97-1.44c-0.94,0.21-1.14,1.46-1.08,2.42c0.15,2.32,0.59,4.62,1.33,6.83
						c-11.35-0.05-21.81,4.95-28.54,13.13c-6.73,8.19-9.62,19.41-7.53,30.06c1.99,9.24,8.53,17.09,16.56,22.09
						c8.03,5,17.43,7.39,26.82,8.49C320.49,185.1,337.98,183.04,361.39,175.82z"/>
					<path class="st2" d="M309.07,115.41c-44.85,1.63-47.5,41.69-47.5,41.69l2.75-4.79c0,0,10.69-30.78,42.8-30.48
						c32.11,0.31,42.3,38.04,42.3,38.04l8.66-6.29C358.1,153.59,353.92,113.78,309.07,115.41z"/>
				</g>
				<g>
					<path class="st13" d="M270.29,155.61c-2.54-2.07-5.13-4.17-8.18-5.36c-3.05-1.18-6.7-1.3-9.44,0.49
						c-2.64,1.72-3.97,4.83-5.06,7.79c-1.92,5.2-3.58,10.62-3.4,16.15c0.18,5.53,2.49,11.26,7.1,14.33
						c4.61,3.07,11.63,2.62,14.96-1.81L270.29,155.61z"/>
					<g>
						<path class="st9" d="M349.9,167.18c1.08,8.9,1.21,18.08-1.24,26.7c-2.46,8.63-7.75,16.71-15.55,21.13
							c-8.44,4.77-18.71,4.82-28.36,3.93c-9.81-0.91-20-2.84-27.73-8.95c-8.09-6.39-12.41-16.72-13.24-26.99
							c-0.83-10.28,1.51-20.57,4.14-29.48c9.71-0.9,18.7-7.43,21.9-16.33c8.98,6.74,21.97,7.63,31.98,2.62
							c1.32,4.26,2.69,8.6,5.33,12.19c2.65,3.59,6.86,6.34,11.51,6.4c0.09,2.51,1.24,4.96,3.1,6.65
							C343.61,166.73,346.17,167.63,349.9,167.18z"/>
						<g>
							<path class="st14" d="M342.41,199.1c-0.15-4.88-4.63-9.22-9.51-9.22c-4.89,0-9.36,4.34-9.51,9.22
								c-0.15,4.88,4.06,9.49,8.93,9.78C338.36,208.59,342.56,203.98,342.41,199.1z"/>
							<path class="st14" d="M282.57,193.72c-2.3-4.28-8.19-6.18-12.56-4.05c-1.75,0.85-3.13,2.29-4.04,4
								c1.78,5.27,4.59,10.15,8.48,14.03c1.09,0,2.17-0.18,3.2-0.58C283.61,204.79,284.88,198,282.57,193.72z"/>
						</g>
						<g>
							<path class="st10" d="M286.17,178.06c7.62,3.62,16.93,3.48,24.43-0.37"/>
							<path class="st10" d="M299.54,162.81c-0.95,1.93-1.91,3.85-2.86,5.78c2.1,0.9,4.52,1.02,6.7,0.33"/>
							<g>
								<path class="st10" d="M269.54,159.4c0.99,1.41,1.97,2.81,2.9,4.37c4.81-3.22,11.42-3.52,16.5-0.74"/>
								<path class="st10" d="M276.58,161.83c-0.35-1.3-0.71-2.59-1.07-3.89"/>
								<path class="st10" d="M281.48,157.94c-0.07,1.07-0.15,2.13-0.23,3.2"/>
							</g>
							<g>
								<path class="st10" d="M335.62,161.59c-1.11,1.31-2.22,2.62-3.29,4.09c-4.5-3.65-11.05-4.55-16.37-2.25"/>
								<path class="st10" d="M328.39,163.36c0.46-1.27,0.94-2.51,1.42-3.78"/>
								<path class="st10" d="M323.87,159.04c-0.03,1.07-0.05,2.13-0.06,3.21"/>
							</g>
						</g>
					</g>
					<g>
						<path class="st13" d="M367.45,160.86c-5.18-0.43-10.35-0.85-15.52-1.27c-2.3-7.84-4.21-14.72-7.61-20.87
							c-3.41-6.15-8.4-11.55-14.69-14.68c-4.67-2.31-9.89-3.31-15.09-3.67c-10.91-0.76-22.16,1.28-31.6,6.8
							c-9.44,5.52-16.92,14.68-19.48,25.19c-0.83,0-1.65-0.35-3.11-1.21c4.03-16.65,16.34-31.07,32.15-37.66
							c15.81-6.59,34.72-5.18,49.38,3.68C356.54,126.02,366.58,142.11,367.45,160.86z"/>
						<g>
							<path class="st13" d="M369.06,159.37c-4.26-4.04-10.68-5.53-16.39-4.13c-5.71,1.4-10.6,5.51-13.33,10.71
								c-2.73,5.2-3.34,11.4-2.09,17.15c1.19,5.47,4.1,10.63,8.51,14.08c4.41,3.45,10.34,5.04,15.79,3.77
								c7.94-1.85,13.66-9.54,14.83-17.61C377.54,175.28,376.01,165.97,369.06,159.37z"/>
							<path class="st15" d="M365.81,162.96c-3.3-1.78-7.66-0.45-10.19,2.31c-2.54,2.77-3.55,6.62-3.84,10.36
								c-0.31,3.95,0.15,8.13,2.39,11.4c2.24,3.26,6.62,5.27,10.31,3.84c3.57-1.38,5.41-5.31,6.45-8.99
								c0.84-2.97,1.4-6.08,1.09-9.16C371.7,169.65,370.98,165.74,365.81,162.96z"/>
						</g>
						<g>
							<path class="st10" d="M256.34,189.88c2.49,14,6.32,28,13.85,40.06c7.53,12.06,19.15,22.08,33.01,25.23"/>
							<path class="st10" d="M306.32,255.14c13.22-3.62,25.31-11.28,34.23-21.7c8.91-10.42,14.62-23.54,16.16-37.16"/>
							<path class="st16" d="M301.29,257.51v-3.21c0-1.73,1.4-3.14,3.13-3.14c1.73,0,3.13,1.4,3.13,3.14v3.21
								c0,1.73-1.4,3.13-3.13,3.13C302.69,260.64,301.29,259.24,301.29,257.51z"/>
						</g>
					</g>
				</g>
			</g>
		</g>
		<g>
			<circle class="st17" cx="432.9" cy="306.62" r="2.63"/>
			<circle class="st17" cx="134.05" cy="251.16" r="2.63"/>
			<circle class="st17" cx="477.56" cy="218.39" r="2.63"/>
			<g>
				<line class="st17" x1="424.2" y1="130.44" x2="424.2" y2="139.8"/>
				<line class="st17" x1="419.52" y1="135.12" x2="428.88" y2="135.12"/>
			</g>
			<g>
				<line class="st17" x1="386.79" y1="222.29" x2="386.79" y2="231.65"/>
				<line class="st17" x1="382.11" y1="226.97" x2="391.47" y2="226.97"/>
			</g>
			<g>
				<line class="st17" x1="234.25" y1="207.23" x2="234.25" y2="216.59"/>
				<line class="st17" x1="229.57" y1="211.91" x2="238.93" y2="211.91"/>
			</g>
		</g>
	</g>
</g>
</svg>
